<?xml version="1.0" encoding="utf-8"?>
<!-- Generator: Adobe Illustrator 25.0.1, SVG Export Plug-In . SVG Version: 6.00 Build 0)  -->
<svg version="1.1" id="_x3C_Layer_x3E_" xmlns="http://www.w3.org/2000/svg" xmlns:xlink="http://www.w3.org/1999/xlink" x="0px"
	 y="0px" viewBox="0 0 135.93 166.92" style="enable-background:new 0 0 135.93 166.92;" xml:space="preserve">
<style type="text/css">
	.st0{fill:#FFFFFF;}
</style>
<g>
	<g>
		<path class="st0" d="M113.53,88.67c-0.19-21.12,17.25-31.26,18.02-31.73c-9.8-14.35-25.08-16.35-30.5-16.59
			c-13.01-1.31-25.39,7.67-31.97,7.67c-6.6,0-16.78-7.45-27.54-7.24c-14.2,0.19-27.24,8.25-34.55,20.9
			c-14.72,25.54-3.78,63.4,10.59,84.11c7,10.14,15.35,21.53,26.32,21.12c10.59-0.41,14.59-6.83,27.37-6.83
			c12.76,0,16.37,6.83,27.56,6.66c11.37-0.24,18.58-10.38,25.52-20.52c8.04-11.77,11.38-23.16,11.57-23.76
			C135.68,122.38,113.74,113.95,113.53,88.67z"/>
		<path class="st0" d="M92.5,26.64c5.84-7.05,9.77-16.87,8.69-26.64C92.8,0.32,82.62,5.61,76.62,12.63
			c-5.41,6.27-10.16,16.29-8.87,25.85C77.09,39.19,86.68,33.71,92.5,26.64z"/>
	</g>
</g>
</svg>
