<?xml version="1.0" encoding="utf-8"?>
<!-- Generator: Adobe Illustrator 25.0.1, SVG Export Plug-In . SVG Version: 6.00 Build 0)  -->
<svg version="1.1" id="레이어_1" xmlns="http://www.w3.org/2000/svg" xmlns:xlink="http://www.w3.org/1999/xlink" x="0px"
	 y="0px" viewBox="0 0 32.18 10.92" style="enable-background:new 0 0 32.18 10.92;" xml:space="preserve">
<style type="text/css">
	.st0{fill:#999999;}
</style>
<g>
	<rect x="28.23" y="2.07" class="st0" width="0.81" height="7.53"/>
	
		<rect x="24.71" y="2.82" transform="matrix(0.7071 -0.7071 0.7071 0.7071 5.6285 20.0431)" class="st0" width="4.6" height="0.81"/>
	<rect x="29.86" y="0.93" transform="matrix(0.7072 -0.707 0.707 0.7072 6.5794 22.3415)" class="st0" width="0.81" height="4.6"/>
</g>
<g>
	<path class="st0" d="M7.76,0L7.24,2.26h-0.4c0-0.14-0.02-0.31-0.06-0.52S6.7,1.33,6.64,1.17C6.57,0.99,6.49,0.83,6.38,0.7
		S6.15,0.5,6,0.47C5.88,0.46,5.73,0.45,5.55,0.44S5.2,0.43,5.04,0.43H4.68L3.13,7.14C3.12,7.17,3.11,7.2,3.11,7.24
		S3.1,7.31,3.1,7.35c0,0.09,0.02,0.17,0.05,0.23s0.1,0.11,0.2,0.16c0.08,0.03,0.22,0.07,0.42,0.11s0.37,0.07,0.5,0.07L4.19,8.31
		H0.26l0.09-0.39C0.47,7.92,0.64,7.9,0.86,7.88s0.38-0.05,0.49-0.09C1.5,7.73,1.62,7.65,1.7,7.55s0.13-0.22,0.16-0.36l1.56-6.76
		H3.12c-0.12,0-0.26,0-0.44,0.01C2.5,0.44,2.32,0.46,2.14,0.47C2.01,0.49,1.86,0.57,1.68,0.71C1.51,0.84,1.34,1.01,1.17,1.2
		C1,1.38,0.85,1.57,0.72,1.75c-0.13,0.19-0.24,0.36-0.31,0.5H0L0.52,0H7.76z"/>
	<path class="st0" d="M12.71,4.7c0,0.46-0.08,0.92-0.23,1.38C12.32,6.55,12.1,6.95,11.8,7.3c-0.3,0.36-0.66,0.65-1.09,0.86
		C10.29,8.38,9.8,8.49,9.24,8.49c-0.65,0-1.17-0.21-1.58-0.63c-0.4-0.42-0.61-0.98-0.61-1.69c0-0.52,0.09-1,0.26-1.45
		C7.48,4.27,7.71,3.87,8,3.53C8.3,3.19,8.66,2.92,9.09,2.71c0.43-0.21,0.9-0.31,1.4-0.31c0.7,0,1.24,0.21,1.63,0.64
		S12.71,4.01,12.71,4.7z M11.52,4.48c0-0.56-0.1-0.97-0.3-1.25s-0.48-0.42-0.85-0.42c-0.32,0-0.63,0.1-0.92,0.3
		c-0.29,0.2-0.53,0.52-0.74,0.97C8.55,4.43,8.44,4.8,8.36,5.22s-0.11,0.8-0.11,1.15c0,0.56,0.1,0.98,0.29,1.27
		c0.19,0.29,0.49,0.43,0.88,0.43c0.35,0,0.66-0.11,0.93-0.33s0.49-0.5,0.66-0.83c0.17-0.33,0.3-0.71,0.39-1.13
		C11.47,5.36,11.52,4.92,11.52,4.48z"/>
	<path class="st0" d="M19.63,4.64c0,0.52-0.09,1.02-0.28,1.49S18.93,7,18.63,7.35c-0.34,0.38-0.71,0.66-1.1,0.84
		c-0.4,0.18-0.8,0.28-1.22,0.28c-0.34,0-0.61-0.04-0.83-0.12c-0.21-0.08-0.41-0.18-0.57-0.3l-0.34,1.54
		c-0.02,0.1-0.04,0.19-0.06,0.28s-0.02,0.15-0.02,0.21c0,0.11,0.04,0.19,0.11,0.25s0.16,0.11,0.26,0.13
		c0.1,0.03,0.21,0.05,0.33,0.07s0.23,0.03,0.33,0.04l-0.08,0.37h-3.23l0.08-0.37c0.13-0.01,0.24-0.02,0.35-0.03s0.21-0.03,0.31-0.06
		c0.12-0.04,0.22-0.1,0.29-0.2s0.12-0.21,0.16-0.36l1.22-5.39c0.03-0.15,0.06-0.3,0.09-0.45c0.03-0.15,0.04-0.28,0.04-0.39
		c0-0.22-0.03-0.37-0.1-0.44s-0.22-0.11-0.44-0.11c-0.09,0-0.19,0.02-0.33,0.05s-0.24,0.06-0.31,0.08l0.09-0.38
		c0.3-0.13,0.56-0.24,0.8-0.31s0.44-0.11,0.61-0.11c0.27,0,0.48,0.07,0.62,0.21c0.14,0.14,0.23,0.33,0.26,0.58H16
		C16.26,3,16.55,2.8,16.85,2.64c0.3-0.16,0.6-0.24,0.9-0.24c0.59,0,1.06,0.2,1.39,0.61C19.47,3.41,19.63,3.95,19.63,4.64z
		 M17.81,7.06c0.2-0.32,0.35-0.69,0.46-1.09c0.11-0.41,0.16-0.84,0.16-1.3c0-0.21-0.02-0.42-0.06-0.63
		c-0.04-0.21-0.1-0.38-0.18-0.52c-0.09-0.15-0.2-0.27-0.35-0.35s-0.34-0.13-0.59-0.13c-0.18,0-0.38,0.05-0.59,0.16
		c-0.22,0.11-0.48,0.31-0.79,0.62l-0.75,3.33c0.03,0.22,0.15,0.43,0.36,0.63c0.21,0.19,0.47,0.29,0.77,0.29
		c0.31,0,0.6-0.09,0.87-0.27S17.62,7.37,17.81,7.06z"/>
</g>
</svg>
